<?xml version="1.0" encoding="UTF-8"?>
<svg xmlns="http://www.w3.org/2000/svg" width="440" height="200" viewBox="0 0 440 200">
  <path fill="#005BAC" d="M86.726 117.794v-46.11c0-4.715 2.066-10.313 9.998-10.313 7.916 0 9.982 7.072 9.982 10.313v46.11h21.456V72.272c0-9.132-5.89-27.4-29.1-27.4-17.618 0-24.077 12.666-24.077 12.666S68.526 44.872 50.9 44.872c-23.201 0-29.091 18.269-29.091 27.4v45.522h21.458v-46.11c0-3.24 2.059-10.313 9.98-10.313 7.928 0 9.989 5.597 9.989 10.313v46.11h23.49zm54.46-11.347c6.991 8.981 17.879 14.765 30.134 14.765 12.237 0 23.134-5.783 30.126-14.765h-60.26zm22.765-4.355c-6.825-2.44-12.979-9.264-12.979-19.426 0-19.222 25.33-21.216 25.33-31.606 0-3.829-4.13-5.903-7.665-6.404-19.869 1.382-35.535 17.96-35.535 38.232a38.226 38.226 0 005.104 19.145l25.745.059zm40.463-.06a38.228 38.228 0 005.107-19.145c0-19.393-14.345-35.405-32.956-37.968 4.364 2.503 12.957 9.95 12.957 22.721 0 19.321-23.79 17.894-23.79 28.279 0 4.604 4.037 6.172 5.576 6.172l33.106-.059zm-27.99-2.839c-4.99 0-9.905-4.554 1.109-9.123 4.13-1.703 12.725-7.453 14.778-14.675 2.058 16.354-6.196 23.798-15.887 23.798m37.546 18.601h21.591V28.74H213.97v89.054zm64.315-52.597V47.743h-14.316v-18.77h-20.706v66.729c0 5.081 2.863 14.354 8.813 18.116 5.956 3.744 11.012 4.862 26.21 4.862V99.897c-5.062 1.106-14.316 1.325-14.316-8.4v-26.3h14.315zm75.992 10.178c-1.542-16.14-16.734-32.494-37.219-32.494-20.481 0-38.328 16.131-38.328 40.438 0 9.29 6.168 36.679 37.007 36.679 30.83 0 37.67-20.323 37.67-24.963h-20.933c-.442 1.316-2.862 9.503-16.304 9.503-10.271 0-15.76-4.449-16.779-17.019h55.112c.001-3.75.214-7.063-.226-12.144m-54.231-1.997c2.012-10.043 7.68-14.803 17.013-14.803 11.891 0 16.076 9.947 16.076 14.803h-33.089zm90.91-13.259c8.818 0 10.462 8.619 10.462 10.828v46.847h21.147V73.603c0-7.294-3.191-30.498-31.609-30.498-28.413 0-31.602 23.204-31.602 30.498v44.191h21.143V70.947c0-2.21 1.649-10.828 10.459-10.828m33.041-9.048a9.354 9.354 0 006.682-2.776 9.411 9.411 0 002.765-6.703 9.39 9.39 0 00-2.765-6.697c-1.787-1.784-4.15-2.779-6.682-2.779-5.203 0-9.452 4.25-9.452 9.476 0 2.527.995 4.917 2.779 6.703a9.338 9.338 0 006.673 2.776m-7.898-9.479c0-2.11.816-4.104 2.322-5.597a7.79 7.79 0 015.576-2.32c2.109 0 4.1.818 5.597 2.32a7.93 7.93 0 012.304 5.597c0 4.371-3.55 7.92-7.9 7.92a7.824 7.824 0 01-5.576-2.314 7.838 7.838 0 01-2.323-5.606"></path>
  <path fill="#005BAC" d="M421.437 37.581h3.448c.475 0 .863.063 1.145.204.535.27.804.773.804 1.517 0 .693-.186 1.166-.571 1.43-.385.258-.905.396-1.563.396h-3.263v-3.547zm0 9.188v-4.461h3.197c.592 0 1.01.06 1.267.186.481.243.741.692.766 1.376l.074 1.732c.03.417.051.684.081.825.029.144.068.267.11.342h1.736v-.222c-.23-.096-.374-.309-.464-.645-.051-.195-.083-.492-.095-.881l-.049-1.4c-.032-.603-.14-1.043-.349-1.313-.21-.273-.503-.486-.909-.66a2.554 2.554 0 001.064-.944c.28-.398.397-.911.397-1.538 0-1.193-.484-2.012-1.462-2.455-.52-.24-1.165-.354-1.96-.354h-4.809v10.412h1.405zM72.268 158.554c-1.323 2.119-2.356 4.245-3.104 5.843 3.667-3.486 8.373-6.823 11.536-8.643 1.79-.957 4.123-1.838 6.289-1.68.429.024.912.072 1.171.108.178.021.178.141.086.233-.96.983-2.164 2.402-2.945 3.52-.051.072-.115.087-.205.103-9.358 1.193-16.991 7.83-23.709 19.495a.33.33 0 01-.17.126l-.852.18c-.447.084-.844-.384-.823-1.592.078-3.163 4.309-12.993 7.901-17.957 2.198-2.953 3.333-3.508 7.133-3.508.146 0 .205.057.104.213-.366.531-1.571 2.225-2.412 3.559m123.587-3.559c.103-.156.042-.213-.104-.213-3.801 0-4.935.555-7.133 3.508-3.592 4.964-7.825 14.794-7.898 17.957-.03 1.208.376 1.676.814 1.592l.859-.18a.296.296 0 00.163-.126c6.727-11.665 14.354-18.302 23.712-19.495.094-.016.155-.03.21-.103.781-1.117 1.989-2.536 2.935-3.52.096-.093.096-.212-.082-.233a16.18 16.18 0 00-1.172-.108c-2.167-.158-4.496.723-6.289 1.68-3.159 1.819-7.864 5.156-11.53 8.643.744-1.598 1.778-3.724 3.101-5.843.838-1.334 2.044-3.028 2.414-3.559M52.708 170.054c-3.98 4.406-8.886 7.165-11.396 7.126-2.806-.049-3.408-2.929-3.381-4.911.117-6.07 5.705-13.382 13.122-16.932 2.683-1.286 4.741-1.721 7.086-1.613.429.012.753.324.943.501 1.798 1.69 3.182 5.261-6.374 15.829m4.557-11.324c.003-1.361-.983-2.161-2.632-2.161-.997 0-2.24.338-3.601.982-4.683 2.264-8.21 6.862-8.205 10.718 0 1.82.634 3.025.94 3.411.529.657.85.453 1.583.282 1.857-.474 4.681-2.404 6.991-4.856 2.992-3.18 4.927-6.457 4.924-8.376m370.462 4.492c-1.449 5.108-13.605 14.06-25.084 14.06-1.924 0-3.341-1.017-3.299-4.191.015-.965.144-1.954.38-2.958-5.11 2.88-13.298 6.685-15.318 6.685-.685 0-1.362-.39-1.362-1.822 0-3.928 4.889-12.885 5.814-14.678.529-.98.604-1.295.604-1.517 0-.489-.264-.729-.771-.729-.637 0-1.967.623-2.943 1.187-5.746 3.819-10.812 9.53-15.516 17.13-.119.171-.379.288-.771.393l-.251.045c-.676.09-1.088-.77-1.088-1.708 0-2.882 2.714-9.737 5.932-14.963.57-.905.673-1.104.673-1.412 0-.323-.225-.662-.783-.662-1.201 0-4.321 2.077-6.846 4.137-1.71 1.4-7.286 6.397-11.715 14.033-.164.276-.35.41-.782.534l-.222.044c-.367.078-.995-.261-.995-1.582 0-2.234 1.195-5.727 2.842-9.198-5.14 3.601-16.524 10.928-18.111 10.928-1.31 0-1.324-.914-1.333-1.787.057-2.971 1.686-7.033 5.221-13.025-5.72 5.042-16.986 14.881-20.055 14.872-1.139 0-1.808-.956-1.814-2.521-.009-2.933 1.868-6.997 4.725-10.354a577.943 577.943 0 00-14.905 8.495c-4.091 7.696-7.393 13.229-12.258 17.79-2.65 2.484-5.143 4.064-6.55 4.064-.876 0-1.919-.714-1.889-2.782.257-7.917 11.582-16.452 15.87-19.351 1.527-3.028 3.374-6.664 4.764-9.155a9296.35 9296.35 0 00-13.893 11.473c-2.057 1.609-3.547 2.356-4.73 2.356-1.524 0-1.76-1.415-1.76-2.333 0-4.014 3.541-9.842 8.418-13.88 8.289-6.856 19.907-6.994 23.258-6.865.227.016.196.114.113.219-4.635 5.822-9.622 15.112-9.709 15.263 4.398-2.488 12.739-6.104 14.966-7.081 6.57-6.454 15.673-9.572 25.444-8.553.233.023.236.228.126.384-2.444 3.606-6.685 10.489-8.421 15.45-.222.594-.21.84.376.618 3.171-1.299 9.874-4.26 12.829-5.618 1.87-3.696 4.145-7.168 5.898-8.832 1.339-1.175 4.253-1.136 5.122-1.063.242.023.245.18.135.335-2.379 3.502-4.059 5.801-6.09 10.142 7.742-7.009 14.026-11.677 19.34-10.933.831.129.821.629.522 1.13-1.245 2.228-4.088 7.339-5.366 10.127 6.266-6.134 14.182-11.806 19.501-11.551.586.023 1.115.354.693 1.097-2.125 3.774-5.794 11.123-7.387 15.736-.191.563-.267.854.517.711 2.717-.582 7.276-1.994 10.391-3.053 1.165-3.441 3.472-6.889 6.535-9.548 3.64-3.187 10.549-5.804 14.621-5.465.342.036.479.236.592.533.186.456.186.96.013 1.676-1.507 4.979-8.003 9.597-17.296 13.854.161 2.713.753 3.472 2.408 3.472 6.93 0 18.375-6.274 20.105-10.19.185-.462.765-.31.565.387M303.73 175.737c-3.685 2.59-8.305 6.19-8.672 12.049-.081 1.376.329 1.924 1.172 1.924.624 0 1.123-.341 1.889-1.67.983-1.763 4.644-9.607 5.611-12.303m10.615-18.542c-.361-.177-1.201-.462-2.492-.474-4.127-.06-8.833 1.928-11.689 4.797-2.039 2.041-3.47 5.103-3.515 7.479-.009.791.236 1.721.978 1.721 1.603.001 13.123-10.126 16.718-13.523m31.075.129c-3.35-1.388-10.491-.524-15.219 4.452-3.939 4.383-3.98 8.188-2.403 8.825.41.15.729.063.983-.129 3.688-2.658 12.48-9.73 16.639-13.148m59.213 10.088c8.846-3.184 11.606-8.121 11.824-10.843.007-.414.075-.705-.699-.698-1.201-.007-3.544.872-5.073 1.957-2.816 2.018-5.586 5.837-6.052 9.584m-137.165 1.862c-.379.974-.045 1.379.463 1.181 4.157-1.628 12.626-5.426 14.461-6.29.648-.3.654.262.089.654-3.908 2.728-17.807 12.312-20.69 12.312-.78 0-1.171-.464-1.171-1.352 0-1.721.995-5.747 3.071-10.169-4.775 3.412-17.063 11.365-18.71 11.365-1.314 0-1.332-.914-1.338-1.787.051-2.971 1.68-7.033 5.211-13.025-5.726 5.042-16.973 14.881-20.048 14.872-1.133 0-1.805-.956-1.817-2.521 0-1.551.526-3.415 1.438-5.321-5.143 3.867-13.112 8.088-20.164 8.088-1.921 0-3.337-1.017-3.291-4.191.064-4.76 2.931-10.276 7.368-14.138 3.647-3.187 10.553-5.804 14.629-5.465.338.036.481.236.595.533.17.456.176.96.006 1.676-1.509 4.979-8.002 9.597-17.298 13.854.162 2.713.751 3.472 2.415 3.472 4.445 0 12.875-4.107 17.635-7.042a24.21 24.21 0 012.065-2.561c6.628-7.168 16.181-10.666 26.47-9.599.233.023.236.228.129.384-2.453 3.606-6.688 10.489-8.427 15.45-.213.594-.204.84.376.618 3.377-1.386 10.743-4.644 13.352-5.858.042-.09.087-.177.132-.27 3.974-7.669 9.506-17.1 17.183-25.021 1.464-1.517 3.287-1.915 6.35-2.23.272-.021.332.094.219.226-3.682 4.44-15.062 18.167-20.703 32.155m-57.217-1.862c8.85-3.184 11.615-8.121 11.837-10.843.006-.414.081-.705-.705-.698-1.204-.007-3.549.872-5.071 1.957-2.817 2.018-5.589 5.837-6.061 9.584m42.033-10.088c-3.361-1.388-10.494-.524-15.229 4.452-3.933 4.383-3.979 8.188-2.399 8.825.406.15.732.063.989-.129 3.673-2.658 12.473-9.73 16.639-13.148M58.757 140.149c-11.817 0-30.533 1.532-32.571 1.712-.278.03-.617.105-.896.362-.937.813-3.837 3.97-4.245 4.566-.162.267-.392.629.39.504.012 0 7.368-1.392 7.896-1.47-9.072 8.718-15.808 18.979-23.649 35.675-.242.594-.133.744.345.66 1.799-.346 5.063-1.025 7.007-1.661 2.699-5.972 6.31-12.822 10.308-19.229 5.142-1.352 11.004-2.662 15.901-3.046.178-.026.373-.152.525-.323.267-.291 1.297-1.409 1.419-1.571.377-.479.172-.569-1.443-.549-3.292.048-8.627.504-13.638 1.244 3.224-4.77 6.619-9.093 9.927-12.321 7.895-.866 14.81-1.673 21.649-2.245.233-.036.561-.036.747-.228l1.294-1.395c.479-.52.237-.685-.966-.685m115.291 23.073c-1.449 5.108-13.601 14.06-25.085 14.06-1.918 0-3.338-1.017-3.296-4.191.017-.936.139-1.903.355-2.878-5.18 2.878-13.326 6.568-15.312 6.568-.414 0-1.148-.39-1.121-1.831.049-3.046 1.95-8.022 5.142-13.8.873-1.505 1.052-1.892 1.055-2.248 0-.354-.19-.902-.854-.902-2.87 0-12.397 8.622-18.577 19.195a.365.365 0 01-.166.123l-.658.135c-.438.087-.838-.381-.814-1.589 0-2.422 1.674-7.168 3.886-11.794-4.727 3.127-21.099 13.652-23.507 13.652-.741 0-.998-.671-.939-1.88.393-3.828 3.743-10.408 7.326-16.296-2.19.492-4.22 1.022-5.682 1.531-.401.136-.33-.102-.229-.254.33-.489 1.288-1.754 1.609-2.09.229-.249.357-.32.535-.387 1.355-.42 3.231-.821 5.252-1.19 3.255-5.111 6.395-9.278 7.361-9.935.82-.555 1.857-.765 4.923-.866.218-.016.181.149.113.222-.826.905-3.72 5.039-6.748 9.704 2.779-.381 5.151-.617 6.056-.659.584-.027.832.164.674.38l-.713.921c-.12.152-.267.219-.595.267-.991.135-3.656.566-6.748 1.154-2.763 4.358-5.41 8.832-6.422 11.335-.327.8-.236 1.079.731.734 4.25-1.514 14.173-6.05 17.656-7.662 6.172-11.863 14.651-22.448 17.492-24.469 1.609-1.143 3.23-1.353 5.345-1.448.189-.006.166.174.099.236-5.074 5.676-13.816 17.577-18.722 27.733 8.951-8.318 15.135-10.96 18.941-10.873.625.033 1.001.444.579 1.19-2.169 3.939-5.587 10.453-7.402 15.732-.193.558-.272.846.514.711 2.803-.552 7.069-1.874 10.389-3.019 1.157-3.457 3.477-6.929 6.552-9.594 3.639-3.187 10.544-5.804 14.62-5.465.338.036.484.236.598.533.18.456.18.96.006 1.676-1.509 4.979-8.003 9.597-17.299 13.854.163 2.713.753 3.472 2.415 3.472 6.928 0 18.369-6.274 20.105-10.19.185-.457.757-.305.56.392m-23.099 4.19c8.853-3.184 11.618-8.121 11.833-10.843.009-.414.083-.705-.698-.698-1.206-.007-3.55.872-5.074 1.957-2.818 2.018-5.586 5.837-6.061 9.584"></path>
</svg>
